<?xml version="1.0" standalone="no"?>
<!DOCTYPE svg PUBLIC "-//W3C//DTD SVG 20010904//EN"
 "http://www.w3.org/TR/2001/REC-SVG-20010904/DTD/svg10.dtd">
<svg version="1.0" xmlns="http://www.w3.org/2000/svg"
 width="245.000000pt" height="50.000000pt" viewBox="0 0 245.000000 50.000000"
 preserveAspectRatio="xMidYMid meet">

<g transform="translate(0.000000,50.000000) scale(0.100000,-0.100000)"
fill="#000000" stroke="none">
<path d="M1211 396 c15 -16 12 -283 -3 -289 -7 -3 12 -5 42 -5 30 0 49 2 43 5
-14 5 -19 93 -5 93 12 0 53 -80 47 -90 -4 -6 12 -10 39 -10 l46 0 -41 66 c-22
37 -38 73 -35 80 3 8 20 23 38 34 l33 20 -49 0 c-46 0 -48 -1 -30 -14 18 -14
18 -15 -10 -45 -17 -17 -33 -31 -38 -31 -4 0 -8 45 -8 99 l0 99 -39 -1 c-25
-1 -36 -6 -30 -11z"/>
<path d="M1445 400 c-16 -4 -24 -8 -17 -9 9 -1 12 -38 12 -151 l0 -150 23 9
c12 4 27 7 32 5 6 -3 10 29 10 82 0 70 3 89 17 97 31 20 48 -8 48 -82 0 -67
-10 -93 -40 -104 -8 -3 -2 -6 13 -6 19 -1 39 9 58 28 25 26 29 37 29 86 0 46
-4 60 -25 80 -28 29 -51 31 -83 9 l-22 -15 0 65 c0 70 0 70 -55 56z"/>
<path d="M2135 400 c-16 -4 -24 -8 -17 -9 9 -1 12 -36 12 -140 0 -102 -3 -141
-12 -144 -7 -3 12 -6 42 -6 33 0 50 3 42 8 -9 5 -12 24 -10 52 l3 44 24 -39
c13 -21 24 -45 24 -52 0 -10 14 -14 45 -14 42 0 44 1 30 18 -8 9 -29 40 -46
68 l-30 52 26 25 c15 13 34 27 42 30 8 3 -7 6 -35 6 -34 0 -45 -2 -36 -8 19
-12 2 -55 -29 -71 -20 -10 -20 -8 -20 90 0 107 2 104 -55 90z"/>
<path d="M588 380 c-68 -12 -108 -67 -108 -147 0 -108 100 -175 192 -127 25
13 32 14 39 2 5 -8 8 8 8 42 l-1 55 -12 -34 c-7 -19 -24 -44 -39 -55 -58 -43
-117 19 -117 124 0 77 25 124 68 128 43 4 76 -18 89 -60 11 -32 11 -32 12 22
0 37 -2 50 -9 40 -7 -11 -14 -12 -32 -3 -37 18 -51 20 -90 13z"/>
<path d="M211 358 c-5 -13 -26 -66 -46 -118 -20 -52 -43 -105 -51 -117 -14
-22 -14 -23 23 -22 21 1 30 3 21 6 -20 5 -23 29 -8 67 8 23 15 26 54 26 41 0
45 -2 59 -37 14 -35 14 -39 -1 -50 -13 -11 -5 -13 49 -12 35 0 59 3 52 5 -6 3
-35 66 -64 140 -52 134 -70 157 -88 112z m28 -135 c1 -8 -12 -13 -34 -13 -40
0 -41 4 -18 62 l17 42 17 -40 c10 -21 18 -45 18 -51z"/>
<path d="M814 300 c-35 -14 -54 -50 -54 -102 0 -62 29 -97 87 -105 37 -5 45
-2 73 25 26 26 30 38 30 82 0 44 -4 56 -29 81 -30 30 -65 36 -107 19z m66 -19
c5 -11 10 -47 10 -81 0 -66 -12 -100 -35 -100 -23 0 -35 34 -35 100 0 66 12
100 35 100 8 0 19 -9 25 -19z"/>
<path d="M1028 295 c-52 -29 -61 -145 -13 -185 22 -18 87 -22 115 -8 50 27 63
127 22 178 -22 28 -87 36 -124 15z m80 -26 c18 -33 11 -135 -11 -156 -16 -16
-18 -16 -34 0 -14 13 -18 34 -18 86 0 94 31 129 63 70z"/>
<path d="M1708 295 c-15 -8 -30 -25 -34 -37 -10 -33 -8 -103 5 -126 25 -46
119 -53 157 -11 28 31 27 131 -2 159 -27 28 -91 35 -126 15z m80 -20 c25 -54
8 -175 -23 -175 -26 0 -39 33 -39 100 0 67 13 100 39 100 6 0 17 -11 23 -25z"/>
<path d="M1940 297 c-13 -7 -31 -24 -38 -37 -17 -33 -10 -115 13 -140 37 -41
132 -34 156 12 12 22 14 96 4 128 -7 23 -54 50 -87 50 -13 0 -34 -6 -48 -13z
m71 -13 c8 -10 13 -42 13 -84 0 -67 -13 -100 -39 -100 -19 0 -35 46 -35 100 0
82 29 122 61 84z"/>
</g>
</svg>
